<?xml version="1.0" standalone="no"?>
<!DOCTYPE svg PUBLIC "-//W3C//DTD SVG 20010904//EN"
 "http://www.w3.org/TR/2001/REC-SVG-20010904/DTD/svg10.dtd">
<svg version="1.0" xmlns="http://www.w3.org/2000/svg"
 width="50.000000pt" height="185.000000pt" viewBox="0 0 83.000000 205.000000"
 preserveAspectRatio="xMidYMid meet">
<metadata>
Created by potrace 1.16, written by Peter Selinger 2001-2019
</metadata>
<g transform="translate(0.000000,205.000000) scale(0.100000,-0.100000)"
fill="#000000" stroke="none">
<path d="M357 1923 c-4 -3 -7 -17 -7 -29 0 -17 -7 -23 -27 -26 -31 -3 -39 -27
-28 -84 5 -28 10 -34 30 -34 20 0 25 -5 25 -23 0 -32 -32 -59 -77 -66 -22 -4
-39 -13 -41 -21 -1 -8 16 -39 38 -69 56 -74 51 -121 -12 -144 -25 -9 -22 -46
6 -72 56 -52 59 -257 6 -550 -16 -93 -30 -202 -30 -241 0 -98 -60 -247 -110
-274 -26 -14 -35 -65 -17 -93 14 -21 13 -24 -14 -39 -35 -20 -37 -41 -7 -62
19 -14 68 -16 335 -16 298 0 314 1 333 20 24 24 18 44 -21 63 -26 12 -28 16
-14 27 8 7 15 27 15 46 0 26 -7 39 -36 60 -41 32 -71 85 -80 143 -4 23 -11 41
-16 41 -6 0 -7 22 -3 53 5 39 -3 98 -30 237 -41 209 -57 353 -49 431 8 77 32
147 55 159 27 15 25 58 -3 69 -67 26 -71 72 -12 152 45 61 44 79 -1 79 -49 0
-93 34 -87 66 3 17 11 24 28 24 14 0 25 6 25 15 8 92 5 105 -26 105 -17 0 -24
7 -28 30 -6 29 -9 30 -60 30 -30 0 -57 -3 -60 -7z"/>
</g>
</svg>
