<?xml version="1.0" standalone="no"?>
<!DOCTYPE svg PUBLIC "-//W3C//DTD SVG 20010904//EN"
 "http://www.w3.org/TR/2001/REC-SVG-20010904/DTD/svg10.dtd">
<svg version="1.0" xmlns="http://www.w3.org/2000/svg"
 width="50.000000pt" height="185.000000pt" viewBox="0 0 86.000000 201.000000"
 preserveAspectRatio="xMidYMid meet">
<metadata>
Created by potrace 1.16, written by Peter Selinger 2001-2019
</metadata>
<g transform="translate(0.000000,201.000000) scale(0.100000,-0.100000)"
fill="#000000" stroke="none">
<path d="M364 1856 c-29 -29 -34 -41 -34 -79 0 -30 7 -53 21 -71 l20 -26 -55
0 c-70 0 -72 -14 -16 -89 24 -32 40 -64 40 -80 0 -27 -26 -61 -47 -61 -36 0
-39 -63 -4 -73 55 -14 60 -256 11 -532 -18 -99 -33 -216 -34 -260 -2 -44 -6
-89 -11 -100 -29 -76 -67 -145 -94 -172 -33 -35 -39 -68 -17 -98 13 -18 11
-21 -15 -37 -33 -20 -38 -52 -10 -68 27 -14 635 -14 662 0 28 16 23 48 -10 68
-26 16 -28 19 -15 37 25 34 17 65 -31 109 -58 53 -94 154 -95 264 0 40 -11
123 -24 185 -41 189 -59 334 -53 427 7 102 30 176 58 183 12 3 19 14 19 31 0
20 -8 29 -35 40 -60 26 -57 72 10 165 14 19 24 39 22 45 -2 6 -27 12 -55 14
-54 3 -63 11 -37 32 42 34 21 136 -34 164 -51 27 -98 21 -137 -18z"/>
</g>
</svg>
