<?xml version="1.0" standalone="no"?>
<!DOCTYPE svg PUBLIC "-//W3C//DTD SVG 20010904//EN"
 "http://www.w3.org/TR/2001/REC-SVG-20010904/DTD/svg10.dtd">
<svg version="1.0" xmlns="http://www.w3.org/2000/svg"
 width="69.000000pt" height="120.000000pt" viewBox="0 0 89.000000 150.000000"
 preserveAspectRatio="xMidYMid meet">
<metadata>
Created by potrace 1.16, written by Peter Selinger 2001-2019
</metadata>
<g transform="translate(0.000000,150.000000) scale(0.100000,-0.100000)"
fill="#000000" stroke="none">
<path d="M360 1328 c-62 -32 -90 -77 -90 -145 0 -65 17 -101 67 -142 25 -20
32 -31 21 -31 -23 0 -109 -38 -131 -57 -22 -21 -7 -33 41 -33 26 0 35 -5 43
-27 20 -49 11 -126 -26 -234 -20 -57 -35 -115 -34 -129 2 -28 -2 -40 -41 -125
-15 -33 -41 -75 -59 -92 -32 -33 -40 -73 -21 -103 6 -11 1 -22 -23 -42 l-32
-27 23 -23 c22 -23 24 -23 326 -26 266 -3 308 -1 336 13 38 20 38 54 -2 73
-25 12 -26 14 -12 41 17 34 3 87 -27 96 -10 3 -27 18 -38 33 -21 30 -61 156
-61 194 0 13 -18 73 -41 133 -35 92 -40 118 -37 164 5 59 23 81 67 81 14 0 33
5 41 10 13 9 11 13 -10 30 -14 11 -51 28 -84 38 l-58 19 35 21 c91 53 102 188
21 264 -57 53 -123 62 -194 26z"/>
</g>
</svg>
