<?xml version="1.0" standalone="no"?>
<!DOCTYPE svg PUBLIC "-//W3C//DTD SVG 20010904//EN"
 "http://www.w3.org/TR/2001/REC-SVG-20010904/DTD/svg10.dtd">
<svg version="1.0" xmlns="http://www.w3.org/2000/svg"
 width="50.000000pt" height="185.000000pt" viewBox="0 0 94.000000 166.000000"
 preserveAspectRatio="xMidYMid meet">
<metadata>
Created by potrace 1.16, written by Peter Selinger 2001-2019
</metadata>
<g transform="translate(0.000000,166.000000) scale(0.100000,-0.100000)"
fill="#000000" stroke="none">
<path d="M560 1439 c-19 -12 -46 -32 -60 -44 -14 -13 -50 -33 -81 -45 -68 -25
-135 -87 -207 -190 -29 -41 -62 -87 -73 -102 -25 -31 -21 -63 14 -104 32 -37
82 -38 111 -1 12 15 31 39 43 54 21 28 23 28 132 28 l110 0 -6 -25 c-11 -49
-34 -87 -119 -195 -157 -201 -201 -276 -189 -322 4 -16 15 -25 34 -29 29 -6
29 -6 16 -44 -22 -61 -51 -113 -84 -147 -33 -35 -39 -68 -17 -98 13 -18 11
-21 -15 -37 -33 -20 -38 -52 -10 -68 27 -14 635 -14 662 0 28 16 24 48 -10 68
-27 15 -28 18 -14 39 22 32 8 77 -33 108 -41 31 -54 54 -70 122 -10 42 -9 53
1 57 28 10 46 56 60 151 8 54 28 140 45 191 35 109 39 208 15 313 -29 120
-100 215 -182 242 -36 12 -36 9 -17 77 8 28 -10 29 -56 1z"/>
</g>
</svg>
