<?xml version="1.0" standalone="no"?>
<!DOCTYPE svg PUBLIC "-//W3C//DTD SVG 20010904//EN"
 "http://www.w3.org/TR/2001/REC-SVG-20010904/DTD/svg10.dtd">
<svg version="1.0" xmlns="http://www.w3.org/2000/svg"
 width="50.000000pt" height="185.000000pt" viewBox="0 0 82.000000 162.000000"
 preserveAspectRatio="xMidYMid meet">
<metadata>
Created by potrace 1.16, written by Peter Selinger 2001-2019
</metadata>
<g transform="translate(0.000000,162.000000) scale(0.100000,-0.100000)"
fill="#000000" stroke="none">
<path d="M202 1428 c-16 -16 -16 -150 0 -166 7 -7 20 -12 30 -12 14 0 16 -6
12 -29 -5 -22 -1 -32 16 -44 25 -17 25 -14 -11 -311 -21 -179 -24 -301 -8
-343 7 -19 7 -29 0 -31 -6 -2 -11 -10 -11 -18 0 -29 -51 -126 -84 -160 -37
-38 -46 -77 -26 -113 7 -14 4 -21 -15 -31 -35 -19 -40 -42 -15 -62 20 -16 52
-18 340 -18 294 0 318 1 333 18 24 27 21 40 -14 61 -18 11 -26 22 -20 25 6 4
11 27 11 51 0 39 -4 46 -29 59 -65 34 -96 133 -92 296 2 79 -6 177 -23 314
-32 241 -32 248 -5 264 17 11 20 20 15 43 -5 24 -2 29 14 29 27 0 40 30 40 89
0 65 -14 101 -40 101 -15 0 -20 -7 -20 -25 0 -27 -32 -65 -54 -65 -24 0 -46
29 -46 61 l0 29 -75 0 -75 0 0 -35 c0 -43 -29 -63 -66 -46 -19 8 -24 18 -24
46 0 30 -3 35 -23 35 -13 0 -28 -5 -35 -12z"/>
</g>
</svg>
