<?xml version="1.0" standalone="no"?>
<!DOCTYPE svg PUBLIC "-//W3C//DTD SVG 20010904//EN"
 "http://www.w3.org/TR/2001/REC-SVG-20010904/DTD/svg10.dtd">
<svg version="1.0" xmlns="http://www.w3.org/2000/svg"
 width="50.000000pt" height="185.000000pt" viewBox="0 0 81.000000 173.000000"
 preserveAspectRatio="xMidYMid meet">
<metadata>
Created by potrace 1.16, written by Peter Selinger 2001-2019
</metadata>
<g transform="translate(0.000000,173.000000) scale(0.100000,-0.100000)"
fill="#000000" stroke="none">
<path d="M367 1600 c-71 -84 -125 -395 -82 -470 20 -36 19 -40 -15 -40 -19 0
-33 -7 -40 -19 -12 -23 -3 -51 16 -51 7 0 21 -15 31 -32 29 -55 22 -161 -20
-321 -22 -84 -34 -148 -31 -166 4 -16 1 -32 -5 -35 -6 -4 -11 -14 -11 -22 0
-27 -59 -135 -90 -164 -33 -31 -38 -65 -16 -95 13 -18 11 -21 -15 -37 -33 -20
-38 -52 -10 -68 27 -14 635 -14 662 0 28 16 23 48 -10 68 -26 16 -28 19 -15
37 25 34 17 65 -31 109 -37 33 -49 55 -69 116 -13 41 -23 91 -24 111 0 19 -14
78 -30 131 -47 146 -58 216 -43 284 10 45 19 59 42 73 24 13 29 22 27 46 -3
27 -7 30 -40 33 l-37 3 19 32 c49 79 -1 387 -77 477 -31 38 -55 38 -86 0z"/>
</g>
</svg>
