<svg id="Capa_1" enable-background="new 0 0 512 512" height="100" viewBox="0 0 512 512" width="100" xmlns="http://www.w3.org/2000/svg"><path d="m488 16h-151.2c-12.689.004-25.001 4.318-34.919 12.234l-48.889 39.128c-13.288 10.6-21.016 26.68-20.992 43.678v68.96c.04 11.617 5.661 22.506 15.106 29.269-9.733 14.039-9.444 32.718.719 46.449-.734 17.71-3.929 35.232-9.491 52.062l-5.92 17.68c-.274.819-.414 1.677-.414 2.54v8c-4.418 0-8 3.582-8 8v24c-4.418 0-8 3.582-8 8v32c0 4.418 3.582 8 8 8h112c4.418 0 8-3.582 8-8v-32c0-4.418-3.582-8-8-8v-24c0-4.418-3.582-8-8-8v-8c0-.863-.14-1.721-.414-2.54l-5.907-17.64c-5.567-16.842-8.765-34.377-9.5-52.1 4.724-6.392 7.434-14.047 7.786-21.987 3.452-1.447 6.635-3.466 9.415-5.972l41.586-35.761h5.034c26.254-.065 51.123-11.788 67.88-32h44.12c4.418 0 8-3.582 8-8v-128c0-4.418-3.582-8-8-8zm-173.352 117.946 9.451 8.506-20.099 18.061v-36.832l8-6.853v11.172c0 2.268.962 4.429 2.648 5.946zm13.352-9.509v-21.323l16-13.714v14.6c0 2.426 1.101 4.722 2.994 6.24l6.843 5.489-17.77 15.971zm-52.208 90.7c1.228 3.114 2.911 6.028 4.993 8.649 5.61 7.07 13.851 11.559 22.833 12.438-2.355 13.044-14.839 21.709-27.883 19.353-11.41-2.06-19.715-11.983-19.735-23.577-.012-6.118 2.338-12.004 6.56-16.432 1.799.285 3.618.43 5.44.432 2.621-.001 5.234-.289 7.792-.861zm52.208 184.863h-96v-16h96zm-88-32v-16h80v16zm8-32v-6.7l5.519-16.484c4.781-14.485 7.958-29.45 9.474-44.628 10.77 5.077 23.244 5.077 34.014 0 1.519 15.191 4.7 30.17 9.487 44.667l5.506 16.445v6.7zm232-192h-40c-2.518 0-4.889 1.186-6.4 3.2-13.633 18.088-34.95 28.746-57.6 28.8h-8c-1.914 0-3.764.686-5.215 1.934l-43.92 37.759c-8.318 7.01-20.561 5.348-26.235-2.432-4.916-6.742-4.06-16.927 2.64-23.39l75.809-68.121c3.507-2.687 4.172-7.709 1.485-11.216-.391-.511-.843-.973-1.345-1.375l-11.216-9v-28.159c0-4.418-3.582-8-8-8-1.91 0-3.757.683-5.207 1.927l-32 27.435-24 20.56c-1.775 1.52-2.797 3.741-2.796 6.078v54.89l-3.437 3.089c-6.117 5.48-10.001 13.022-10.909 21.184-3.65 1.106-7.544 1.116-11.2.028-8.539-2.486-14.423-10.297-14.454-19.191v-68.96c-.014-12.14 5.508-23.624 15-31.194l48.886-39.125c7.077-5.646 15.861-8.721 24.914-8.721h143.2z"/><path d="m488 448h-280v-24c0-4.418-3.582-8-8-8v-112c-.07-61.564-49.763-111.558-111.326-112l-47.359-7.893c-4.358-.728-8.481 2.214-9.21 6.572-.375 2.246.224 4.545 1.648 6.321l28.717 35.9c-4.559 8.096-10.203 15.532-16.776 22.1l-27.351 27.343c-1.5 1.5-2.343 3.535-2.343 5.657v24c0 2.675 1.337 5.172 3.562 6.656 17.139 11.373 39.914 9.118 54.491-5.395l1.26-1.261h13.881l-16.713 13.37c-27.236 21.717-40.445 56.569-34.446 90.883-3.546.899-6.031 4.089-6.035 7.747v24h-8c-4.418 0-8 3.582-8 8v32c0 4.418 3.582 8 8 8h464c4.418 0 8-3.582 8-8v-32c0-4.418-3.582-8-8-8zm-328-67.313v-17.374l24 24v17.374zm0-57.374 24 24v17.374l-24-24zm24 1.374-24-24v-8.91c0-1.389-.05-2.769-.134-4.142l24.134 20.112zm-24 78.626 12.687 12.687h-12.687zm-77.524-65.449 34.524-27.617c3.45-2.76 4.01-7.794 1.25-11.245-1.519-1.898-3.818-3.003-6.25-3.003h-40c-2.122 0-4.157.843-5.657 2.343l-3.6 3.6c-8.102 8.068-20.375 10.226-30.743 5.405v-16.035l25.008-25.007c8.989-8.983 16.467-19.36 22.147-30.728 1.397-2.792 1.042-6.141-.908-8.578l-18.939-23.672 27.377 4.563c.435.073.874.11 1.315.11 45.831.06 85.25 32.457 94.187 77.408l-30.132-25.108c-6.446-11.86-16.389-21.446-28.477-27.454l-7.156 14.31c9.852 4.892 17.803 12.914 22.607 22.81l-.151.181.383.319c3.131 6.667 4.75 13.945 4.739 21.311v124.223h-58.484c-4.423-23.147 5.078-46.744 24.306-60.368l14.828-10.591-9.3-13.02-14.828 10.592c-23.433 16.603-35.514 44.989-31.235 73.387h-15.022c-6.08-29.281 4.828-59.493 28.211-78.136zm-34.476 94.136h144v16h-144zm-16 32h24v16h-24zm40 0h112v16h-112zm128 0h112v16h-112zm128 16v-16h112v16zm152 0h-24v-16h24z"/><path d="m360 416h16v16h-16z"/><path d="m360 384h16v16h-16z"/><path d="m360 336h16v32h-16z"/><circle cx="88" cy="264" r="8"/></svg>