<?xml version="1.0" standalone="no"?>
<!DOCTYPE svg PUBLIC "-//W3C//DTD SVG 20010904//EN"
 "http://www.w3.org/TR/2001/REC-SVG-20010904/DTD/svg10.dtd">
<svg version="1.0" xmlns="http://www.w3.org/2000/svg"
 width="200.000000px" height="100.000000px" viewBox="0 0 834.000000 542.000000"
 preserveAspectRatio="xMidYMid meet">
<g transform="translate(0.000000,542.000000) scale(0.100000,-0.100000)"
fill="#000000" stroke="none">
<path d="M2362 5396 c-18 -13 -119 -113 -226 -222 l-193 -199 -149 87 c-82 47
-238 138 -346 201 -109 63 -209 117 -222 119 -38 8 -93 -20 -107 -53 -14 -35
-11 -84 31 -632 7 -103 7 -144 -1 -160 -17 -31 -102 -127 -294 -327 -83 -87
-124 -145 -153 -215 -19 -44 -21 -76 -25 -275 -4 -200 -7 -232 -26 -290 -36
-104 -89 -200 -257 -466 -280 -444 -352 -596 -384 -811 -14 -97 -1 -225 32
-313 46 -119 165 -268 251 -315 21 -11 37 -23 37 -27 0 -5 5 -8 10 -8 6 0 30
-9 53 -20 23 -12 82 -32 131 -45 90 -24 108 -36 141 -93 37 -62 129 -107 220
-107 70 0 107 13 195 71 119 77 191 173 348 464 123 229 237 343 472 467 52
28 122 65 155 83 33 18 74 40 90 48 17 8 59 32 95 52 36 20 90 51 120 67 119
65 155 86 165 94 5 5 18 9 28 9 19 0 20 -6 13 -147 -7 -160 -16 -219 -53 -358
-28 -105 -25 -99 -93 -238 -91 -186 -140 -246 -479 -593 -108 -110 -217 -225
-242 -255 -64 -76 -131 -183 -159 -254 -13 -33 -27 -64 -31 -70 -14 -19 -48
-211 -55 -305 -9 -148 23 -254 87 -287 19 -10 580 -12 2649 -10 l2625 2 3 140
c4 167 -6 228 -65 385 -24 62 -81 167 -107 193 -6 6 -19 22 -27 34 -18 25
-121 135 -343 363 -294 301 -346 368 -442 560 -69 140 -124 308 -147 450 -16
100 -16 545 0 561 8 8 46 -12 156 -84 141 -93 197 -125 347 -204 41 -22 93
-50 115 -63 69 -40 187 -104 280 -154 22 -11 42 -23 45 -26 3 -3 39 -27 80
-55 141 -94 240 -215 360 -440 9 -16 26 -47 38 -67 44 -76 66 -114 86 -152 35
-66 149 -179 208 -208 106 -51 168 -47 233 16 36 35 44 49 50 94 l7 52 47 0
c78 0 219 30 246 52 5 4 15 8 23 8 24 0 127 77 179 133 158 173 174 435 47
735 -21 48 -45 99 -56 114 -10 14 -18 29 -18 32 0 4 -5 12 -11 19 -20 23 -179
279 -179 288 0 5 -4 9 -10 9 -5 0 -10 4 -10 9 0 6 -39 70 -87 143 -89 136
-183 310 -183 340 0 9 -4 19 -9 22 -5 3 -11 16 -14 28 -3 13 -12 48 -20 78 -9
34 -17 129 -21 250 -3 107 -9 212 -13 234 -9 57 -62 128 -206 277 -171 177
-209 222 -247 298 -32 63 -33 66 -26 155 18 228 26 352 32 489 8 170 11 167
-80 112 -32 -19 -60 -35 -62 -35 -2 0 -44 -25 -94 -55 -50 -30 -95 -55 -100
-55 -6 0 -10 -4 -10 -10 0 -5 -4 -10 -8 -10 -5 0 -48 -24 -96 -52 -48 -29
-104 -62 -124 -74 -20 -11 -67 -40 -104 -62 -37 -23 -72 -42 -76 -42 -7 0
-248 246 -423 431 -20 22 -39 39 -42 39 -7 0 -77 -142 -77 -158 0 -6 -3 -12
-8 -12 -4 0 -13 -15 -21 -32 -17 -40 -174 -369 -199 -418 -18 -35 -19 -35 -73
-30 -115 11 -474 5 -534 -8 -118 -27 -260 -63 -280 -71 -11 -5 -47 -19 -80
-32 -33 -12 -64 -25 -70 -29 -5 -4 -46 -27 -90 -50 -91 -49 -145 -84 -226
-147 -30 -24 -61 -43 -68 -43 -7 0 -38 23 -69 51 -75 67 -205 152 -322 211
-127 65 -250 109 -440 159 -122 32 -482 51 -556 30 -17 -5 -36 -6 -42 -2 -9 6
-92 172 -92 185 0 5 -93 203 -155 329 -38 77 -84 127 -115 127 -14 -1 -40 -11
-58 -24z m65 -358 c22 -46 48 -103 58 -128 10 -25 50 -108 89 -185 l71 -140
60 3 c33 1 182 4 330 5 233 2 281 -1 350 -17 299 -69 548 -209 775 -435 107
-107 220 -238 220 -256 0 -3 16 -28 35 -55 19 -27 35 -52 35 -55 0 -3 17 -33
38 -68 20 -34 42 -73 49 -87 6 -14 30 -65 53 -115 80 -170 89 -190 104 -238 9
-26 16 -57 16 -67 0 -11 3 -20 8 -20 10 0 32 -50 32 -71 0 -10 5 -21 10 -24 6
-3 10 -19 10 -36 0 -16 4 -37 9 -47 13 -23 60 -180 91 -302 29 -111 46 -181
64 -260 37 -158 56 -239 66 -295 6 -33 15 -78 20 -100 5 -22 14 -69 20 -105 6
-36 15 -87 20 -115 27 -145 60 -357 63 -405 3 -30 7 -62 10 -70 3 -8 9 -40 12
-70 3 -30 10 -93 15 -140 52 -490 67 -799 41 -848 l-12 -22 -1761 0 -1761 0 6
113 c3 82 11 132 30 189 54 165 111 246 336 473 379 384 468 493 567 700 26
55 51 109 55 120 4 11 15 40 24 65 10 25 21 59 25 75 5 17 15 56 24 89 33 119
47 265 45 459 l-3 188 50 52 c28 28 64 70 81 92 35 45 106 176 117 215 4 14
14 50 23 80 12 39 17 97 17 201 1 144 1 146 -27 182 -31 40 -75 55 -119 38
-46 -17 -58 -56 -58 -188 -1 -231 -56 -362 -206 -491 -100 -87 -314 -224 -512
-328 -59 -31 -120 -65 -137 -74 -16 -10 -75 -41 -129 -70 -215 -115 -365 -221
-462 -329 -34 -37 -154 -221 -154 -235 0 -2 -17 -33 -38 -67 -22 -35 -50 -84
-64 -109 -14 -25 -38 -66 -53 -93 -40 -71 -135 -161 -184 -176 -52 -15 -81 -7
-81 23 0 12 37 76 81 142 96 139 105 173 64 222 -23 27 -34 32 -70 32 -42 0
-46 -3 -112 -78 -37 -44 -84 -98 -103 -122 l-35 -42 -85 17 c-138 28 -234 91
-304 200 -48 75 -59 126 -54 257 8 190 71 328 334 735 169 260 226 367 304
568 19 50 30 136 30 241 0 174 17 302 44 344 13 19 80 91 148 160 68 69 158
168 200 221 65 81 85 99 130 119 82 34 329 140 368 158 19 8 78 34 131 57 l97
42 178 183 c99 100 181 186 182 191 8 21 22 4 59 -73z m-1037 12 c14 -11 28
-20 33 -20 4 0 24 -11 45 -23 20 -13 85 -53 145 -88 59 -35 107 -66 107 -69 0
-10 -316 -150 -339 -150 -6 0 -13 10 -16 23 -7 32 -24 330 -18 340 7 11 16 8
43 -13z m4160 -421 c121 -19 149 -38 150 -102 0 -27 -7 -45 -25 -63 -25 -25
-26 -25 -133 -17 -59 4 -192 8 -297 8 -164 -1 -202 -4 -280 -24 -192 -49 -347
-117 -492 -215 -46 -31 -89 -55 -95 -55 -7 1 -37 28 -67 60 -52 57 -54 60 -37
78 10 11 55 43 100 72 44 29 92 59 106 68 14 9 54 30 90 45 36 16 88 39 115
51 28 12 70 28 95 35 25 7 56 16 70 20 109 34 161 41 330 50 152 8 274 4 370
-11z m1466 -677 c50 -26 80 -59 140 -152 82 -129 144 -231 144 -238 0 -4 9
-18 20 -32 25 -32 26 -60 2 -60 -10 0 -22 4 -27 8 -6 5 -26 15 -45 22 -117 46
-223 129 -325 255 -113 140 -138 206 -82 219 43 9 134 -2 173 -22z m1002
-1718 c38 -32 49 -49 80 -126 16 -38 36 -248 25 -259 -14 -14 -276 174 -293
211 -4 8 -12 25 -18 37 -17 33 -15 51 13 98 47 81 126 97 193 39z"/>
<path d="M1438 3950 c-76 -14 -128 -58 -206 -175 -40 -61 -76 -116 -79 -123
-3 -8 -28 -50 -54 -95 -27 -45 -49 -86 -49 -90 0 -21 179 65 257 124 91 68
253 272 253 318 0 36 -53 54 -122 41z"/>
<path d="M423 2280 c-40 -24 -80 -83 -98 -144 -18 -58 -32 -246 -18 -246 13 0
201 135 241 173 40 38 62 77 62 109 0 54 -75 128 -130 128 -14 0 -39 -9 -57
-20z"/>
</g>
</svg>
